<?xml version="1.0" encoding="UTF-8"?>
<svg xmlns="http://www.w3.org/2000/svg" viewBox="0 0 1200 2000">
  <!-- Background -->
  <rect width="1200" height="2000" fill="#f8f9fa" />
  
  <!-- Title Section -->
  <text x="600" y="50" font-family="Arial, sans-serif" font-size="28" font-weight="bold" text-anchor="middle" fill="#333">CAMU ECOA App - Modern Wireframes</text>
  
  <!-- Login Screen -->
  <g transform="translate(100, 100)">
    <!-- Phone Frame -->
    <rect x="0" y="0" width="280" height="550" rx="20" ry="20" fill="#ffffff" stroke="#ddd" stroke-width="2" />
    <!-- Status Bar -->
    <rect x="0" y="0" width="280" height="30" rx="20" ry="20" fill="#f0f0f0" />
    <!-- App Title -->
    <text x="140" y="65" font-family="Arial, sans-serif" font-size="20" font-weight="bold" text-anchor="middle" fill="#333">ECOA Login</text>
    <!-- Logo Placeholder -->
    <circle cx="140" cy="140" r="50" fill="#3498db" />
    <text x="140" y="150" font-family="Arial, sans-serif" font-size="24" font-weight="bold" text-anchor="middle" fill="#ffffff">ECOA</text>
    <!-- Form -->
    <rect x="40" y="220" width="200" height="50" rx="5" ry="5" fill="#ffffff" stroke="#ddd" stroke-width="1" />
    <text x="50" y="245" font-family="Arial, sans-serif" font-size="14" fill="#999">Username</text>
    
    <rect x="40" y="290" width="200" height="50" rx="5" ry="5" fill="#ffffff" stroke="#ddd" stroke-width="1" />
    <text x="50" y="315" font-family="Arial, sans-serif" font-size="14" fill="#999">Password</text>
    
    <rect x="40" y="370" width="200" height="50" rx="25" ry="25" fill="#3498db" />
    <text x="140" y="400" font-family="Arial, sans-serif" font-size="16" font-weight="bold" text-anchor="middle" fill="#ffffff">Sign In</text>
    
    <!-- Version -->
    <text x="140" y="530" font-family="Arial, sans-serif" font-size="12" text-anchor="middle" fill="#999">Version 1.0</text>
    
    <!-- Screen Title -->
    <text x="140" y="580" font-family="Arial, sans-serif" font-size="16" font-weight="bold" text-anchor="middle" fill="#333">Login Screen</text>
  </g>
  
  <!-- Roster View Screen -->
  <g transform="translate(460, 100)">
    <!-- Phone Frame -->
    <rect x="0" y="0" width="280" height="550" rx="20" ry="20" fill="#ffffff" stroke="#ddd" stroke-width="2" />
    <!-- Status Bar -->
    <rect x="0" y="0" width="280" height="30" rx="20" ry="20" fill="#f0f0f0" />
    <!-- App Bar -->
    <rect x="0" y="30" width="280" height="60" fill="#3498db" />
    <text x="140" y="65" font-family="Arial, sans-serif" font-size="18" font-weight="bold" text-anchor="middle" fill="#ffffff">HOH Roster</text>
    
    <!-- Sync Status -->
    <circle cx="240" cy="60" r="10" fill="#2ecc71" />
    <text x="200" y="65" font-family="Arial, sans-serif" font-size="12" text-anchor="end" fill="#ffffff">Online</text>
    
    <!-- Search Bar -->
    <rect x="20" y="110" width="240" height="40" rx="20" ry="20" fill="#f5f5f5" stroke="#ddd" stroke-width="1" />
    <text x="50" y="135" font-family="Arial, sans-serif" font-size="14" fill="#999">Search by name or CDCR#</text>
    <circle cx="35" cy="130" r="8" fill="none" stroke="#999" stroke-width="2" />
    <line x1="40" y1="135" x2="45" y2="140" stroke="#999" stroke-width="2" />
    
    <!-- Filter Tabs -->
    <rect x="20" y="160" width="70" height="30" rx="15" ry="15" fill="#3498db" />
    <text x="55" y="180" font-family="Arial, sans-serif" font-size="12" text-anchor="middle" fill="#ffffff">All</text>
    
    <rect x="100" y="160" width="70" height="30" rx="15" ry="15" fill="#f5f5f5" stroke="#ddd" stroke-width="1" />
    <text x="135" y="180" font-family="Arial, sans-serif" font-size="12" text-anchor="middle" fill="#333">Unit 1</text>
    
    <rect x="180" y="160" width="70" height="30" rx="15" ry="15" fill="#f5f5f5" stroke="#ddd" stroke-width="1" />
    <text x="215" y="180" font-family="Arial, sans-serif" font-size="12" text-anchor="middle" fill="#333">Unit 2</text>
    
    <!-- Roster List -->
    <!-- Item 1 -->
    <rect x="20" y="210" width="240" height="70" rx="5" ry="5" fill="#ffffff" stroke="#ddd" stroke-width="1" />
    <text x="35" y="235" font-family="Arial, sans-serif" font-size="16" font-weight="bold" fill="#333">John Doe</text>
    <text x="35" y="255" font-family="Arial, sans-serif" font-size="14" fill="#666">CDCR# AZ1234 • Unit 1-202</text>
    <circle cx="240" cy="245" r="15" fill="#3498db" />
    <text x="240" y="250" font-family="Arial, sans-serif" font-size="18" font-weight="bold" text-anchor="middle" fill="#ffffff">></text>
    
    <!-- Item 2 -->
    <rect x="20" y="290" width="240" height="70" rx="5" ry="5" fill="#ffffff" stroke="#ddd" stroke-width="1" />
    <text x="35" y="315" font-family="Arial, sans-serif" font-size="16" font-weight="bold" fill="#333">Richard Smith</text>
    <text x="35" y="335" font-family="Arial, sans-serif" font-size="14" fill="#666">CDCR# BK2345 • Unit 1-105</text>
    <circle cx="240" cy="325" r="15" fill="#3498db" />
    <text x="240" y="330" font-family="Arial, sans-serif" font-size="18" font-weight="bold" text-anchor="middle" fill="#ffffff">></text>
    
    <!-- Item 3 -->
    <rect x="20" y="370" width="240" height="70" rx="5" ry="5" fill="#ffffff" stroke="#ddd" stroke-width="1" />
    <text x="35" y="395" font-family="Arial, sans-serif" font-size="16" font-weight="bold" fill="#333">Michael Jones</text>
    <text x="35" y="415" font-family="Arial, sans-serif" font-size="14" fill="#666">CDCR# CL3456 • Unit 2-310</text>
    <circle cx="240" cy="405" r="15" fill="#3498db" />
    <text x="240" y="410" font-family="Arial, sans-serif" font-size="18" font-weight="bold" text-anchor="middle" fill="#ffffff">></text>
    
    <!-- Bottom Navigation -->
    <rect x="0" y="510" width="280" height="40" fill="#ffffff" stroke="#ddd" stroke-width="1" />
    <text x="70" y="535" font-family="Arial, sans-serif" font-size="14" text-anchor="middle" fill="#3498db" font-weight="bold">Roster</text>
    <text x="210" y="535" font-family="Arial, sans-serif" font-size="14" text-anchor="middle" fill="#999">History</text>
    
    <!-- Screen Title -->
    <text x="140" y="580" font-family="Arial, sans-serif" font-size="16" font-weight="bold" text-anchor="middle" fill="#333">Roster View Screen</text>
  </g>
  
  <!-- Prompt Selection Screen -->
  <g transform="translate(820, 100)">
    <!-- Phone Frame -->
    <rect x="0" y="0" width="280" height="550" rx="20" ry="20" fill="#ffffff" stroke="#ddd" stroke-width="2" />
    <!-- Status Bar -->
    <rect x="0" y="0" width="280" height="30" rx="20" ry="20" fill="#f0f0f0" />
    <!-- App Bar -->
    <rect x="0" y="30" width="280" height="60" fill="#3498db" />
    <text x="140" y="65" font-family="Arial, sans-serif" font-size="18" font-weight="bold" text-anchor="middle" fill="#ffffff">Select Prompt</text>
    
    <!-- Back Button -->
    <text x="20" y="65" font-family="Arial, sans-serif" font-size="16" fill="#ffffff">←</text>
    
    <!-- Inmate Info Card -->
    <rect x="20" y="110" width="240" height="80" rx="5" ry="5" fill="#f5f5f5" stroke="#ddd" stroke-width="1" />
    <text x="35" y="135" font-family="Arial, sans-serif" font-size="16" font-weight="bold" fill="#333">John Doe</text>
    <text x="35" y="155" font-family="Arial, sans-serif" font-size="14" fill="#666">CDCR# AZ1234</text>
    <text x="35" y="175" font-family="Arial, sans-serif" font-size="14" fill="#666">Unit 1-202</text>
    
    <!-- Prompt Categories -->
    <text x="20" y="220" font-family="Arial, sans-serif" font-size="16" font-weight="bold" fill="#333">Select Prompt Category</text>
    
    <!-- Category 1 -->
    <rect x="20" y="240" width="240" height="50" rx="5" ry="5" fill="#ffffff" stroke="#ddd" stroke-width="1" />
    <text x="35" y="270" font-family="Arial, sans-serif" font-size="16" fill="#333">Yard Time</text>
    <text x="240" y="270" font-family="Arial, sans-serif" font-size="18" font-weight="bold" text-anchor="end" fill="#999">></text>
    
    <!-- Category 2 -->
    <rect x="20" y="300" width="240" height="50" rx="5" ry="5" fill="#ffffff" stroke="#ddd" stroke-width="1" />
    <text x="35" y="330" font-family="Arial, sans-serif" font-size="16" fill="#333">Meals</text>
    <text x="240" y="330" font-family="Arial, sans-serif" font-size="18" font-weight="bold" text-anchor="end" fill="#999">></text>
    
    <!-- Category 3 -->
    <rect x="20" y="360" width="240" height="50" rx="5" ry="5" fill="#ffffff" stroke="#ddd" stroke-width="1" />
    <text x="35" y="390" font-family="Arial, sans-serif" font-size="16" fill="#333">Medical</text>
    <text x="240" y="390" font-family="Arial, sans-serif" font-size="18" font-weight="bold" text-anchor="end" fill="#999">></text>
    
    <!-- Category 4 -->
    <rect x="20" y="420" width="240" height="50" rx="5" ry="5" fill="#ffffff" stroke="#ddd" stroke-width="1" />
    <text x="35" y="450" font-family="Arial, sans-serif" font-size="16" fill="#333">Custom Prompt</text>
    <text x="240" y="450" font-family="Arial, sans-serif" font-size="18" font-weight="bold" text-anchor="end" fill="#999">></text>
    
    <!-- Bottom Navigation -->
    <rect x="0" y="510" width="280" height="40" fill="#ffffff" stroke="#ddd" stroke-width="1" />
    <text x="70" y="535" font-family="Arial, sans-serif" font-size="14" text-anchor="middle" fill="#999">Roster</text>
    <text x="210" y="535" font-family="Arial, sans-serif" font-size="14" text-anchor="middle" fill="#999">History</text>
    
    <!-- Screen Title -->
    <text x="140" y="580" font-family="Arial, sans-serif" font-size="16" font-weight="bold" text-anchor="middle" fill="#333">Prompt Selection Screen</text>
  </g>
  
  <!-- Signature Capture Screen -->
  <g transform="translate(100, 750)">
    <!-- Phone Frame -->
    <rect x="0" y="0" width="280" height="550" rx="20" ry="20" fill="#ffffff" stroke="#ddd" stroke-width="2" />
    <!-- Status Bar -->
    <rect x="0" y="0" width="280" height="30" rx="20" ry="20" fill="#f0f0f0" />
    <!-- App Bar -->
    <rect x="0" y="30" width="280" height="60" fill="#3498db" />
    <text x="140" y="65" font-family="Arial, sans-serif" font-size="18" font-weight="bold" text-anchor="middle" fill="#ffffff">Signature Capture</text>
    
    <!-- Back Button -->
    <text x="20" y="65" font-family="Arial, sans-serif" font-size="16" fill="#ffffff">←</text>
    
    <!-- Prompt Info -->
    <rect x="20" y="110" width="240" height="120" rx="5" ry="5" fill="#f5f5f5" stroke="#ddd" stroke-width="1" />
    <text x="35" y="135" font-family="Arial, sans-serif" font-size="16" font-weight="bold" fill="#333">John Doe - CDCR# AZ1234</text>
    <text x="35" y="160" font-family="Arial, sans-serif" font-size="14" fill="#666">Prompt: Yard Time Notification</text>
    <text x="35" y="180" font-family="Arial, sans-serif" font-size="14" fill="#666">Time: 2:30 PM - April 23, 2025</text>
    <text x="35" y="200" font-family="Arial, sans-serif" font-size="14" fill="#666">Officer: J. Smith #12345</text>
    
    <!-- Signature Area -->
    <text x="20" y="250" font-family="Arial, sans-serif" font-size="16" font-weight="bold" fill="#333">Capture Signature</text>
    <rect x="20" y="270" width="240" height="120" rx="5" ry="5" fill="#ffffff" stroke="#ddd" stroke-width="1" />
    <path d="M40,340 C60,320 80,360 100,330 C120,300 140,350 160,330 C180,310 200,350 220,320" fill="none" stroke="#333" stroke-width="2" />
    <text x="140" y="360" font-family="Arial, sans-serif" font-size="12" text-anchor="middle" fill="#999">Sign above</text>
    
    <!-- Action Buttons -->
    <rect x="20" y="410" width="240" height="40" rx="20" ry="20" fill="#3498db" />
    <text x="140" y="435" font-family="Arial, sans-serif" font-size="16" font-weight="bold" text-anchor="middle" fill="#ffffff">Save Signature</text>
    
    <rect x="20" y="460" width="110" height="40" rx="20" ry="20" fill="#f5f5f5" stroke="#ddd" stroke-width="1" />
    <text x="75" y="485" font-family="Arial, sans-serif" font-size="14" text-anchor="middle" fill="#333">Refused</text>
    
    <rect x="150" y="460" width="110" height="40" rx="20" ry="20" fill="#f5f5f5" stroke="#ddd" stroke-width="1" />
    <text x="205" y="485" font-family="Arial, sans-serif" font-size="14" text-anchor="middle" fill="#333">Attempted</text>
    
    <!-- Screen Title -->
    <text x="140" y="580" font-family="Arial, sans-serif" font-size="16" font-weight="bold" text-anchor="middle" fill="#333">Signature Capture Screen</text>
  </g>
  
  <!-- History View Screen -->
  <g transform="translate(460, 750)">
    <!-- Phone Frame -->
    <rect x="0" y="0" width="280" height="550" rx="20" ry="20" fill="#ffffff" stroke="#ddd" stroke-width="2" />
    <!-- Status Bar -->
    <rect x="0" y="0" width="280" height="30" rx="20" ry="20" fill="#f0f0f0" />
    <!-- App Bar -->
    <rect x="0" y="30" width="280" height="60" fill="#3498db" />
    <text x="140" y="65" font-family="Arial, sans-serif" font-size="18" font-weight="bold" text-anchor="middle" fill="#ffffff">Prompt History</text>
    
    <!-- Date Filter -->
    <rect x="20" y="110" width="240" height="40" rx="5" ry="5" fill="#f5f5f5" stroke="#ddd" stroke-width="1" />
    <text x="140" y="135" font-family="Arial, sans-serif" font-size="14" text-anchor="middle" fill="#333">Today: April 23, 2025</text>
    <text x="240" y="135" font-family="Arial, sans-serif" font-size="16" font-weight="bold" text-anchor="end" fill="#999">▼</text>
    
    <!-- History List -->
    <!-- Item 1 -->
    <rect x="20" y="170" width="240" height="80" rx="5" ry="5" fill="#ffffff" stroke="#ddd" stroke-width="1" />
    <text x="35" y="195" font-family="Arial, sans-serif" font-size="16" font-weight="bold" fill="#333">John Doe - AZ1234</text>
    <text x="35" y="215" font-family="Arial, sans-serif" font-size="14" fill="#666">Yard Time - 2:30 PM</text>
    <rect x="35" y="225" width="60" height="20" rx="10" ry="10" fill="#2ecc71" />
    <text x="65" y="240" font-family="Arial, sans-serif" font-size="12" text-anchor="middle" fill="#ffffff">Signed</text>
    
    <!-- Item 2 -->
    <rect x="20" y="260" width="240" height="80" rx="5" ry="5" fill="#ffffff" stroke="#ddd" stroke-width="1" />
    <text x="35" y="285" font-family="Arial, sans-serif" font-size="16" font-weight="bold" fill="#333">Richard Smith - BK2345</text>
    <text x="35" y="305" font-family="Arial, sans-serif" font-size="14" fill="#666">Meals - 12:00 PM</text>
    <rect x="35" y="315" width="70" height="20" rx="10" ry="10" fill="#e74c3c" />
    <text x="70" y="330" font-family="Arial, sans-serif" font-size="12" text-anchor="middle" fill="#ffffff">Refused</text>
    
    <!-- Item 3 -->
    <rect x="20" y="350" width="240" height="80" rx="5" ry="5" fill="#ffffff" stroke="#ddd" stroke-width="1" />
    <text x="35" y="375" font-family="Arial, sans-serif" font-size="16" font-weight="bold" fill="#333">Michael Jones - CL3456</text>
    <text x="35" y="395" font-family="Arial, sans-serif" font-size="14" fill="#666">Medical - 9:15 AM</text>
    <rect x="35" y="405" width="90" height="20" rx="10" ry="10" fill="#f39c12" />
    <text x="80" y="420" font-family="Arial, sans-serif" font-size="12" text-anchor="middle" fill="#ffffff">Attempted</text>
    
    <!-- Sync Button -->
    <rect x="20" y="450" width="240" height="40" rx="20" ry="20" fill="#3498db" />
    <text x="140" y="475" font-family="Arial, sans-serif" font-size="16" font-weight="bold" text-anchor="middle" fill="#ffffff">Sync Data</text>
    
    <!-- Bottom Navigation -->
    <rect x="0" y="510" width="280" height="40" fill="#ffffff" stroke="#ddd" stroke-width="1" />
    <text x="70" y="535" font-family="Arial, sans-serif" font-size="14" text-anchor="middle" fill="#999">Roster</text>
    <text x="210" y="535" font-family="Arial, sans-serif" font-size="14" text-anchor="middle" fill="#3498db" font-weight="bold">History</text>
    
    <!-- Screen Title -->
    <text x="140" y="580" font-family="Arial, sans-serif" font-size="16" font-weight="bold" text-anchor="middle" fill="#333">History View Screen</text>
  </g>
  
  <!-- Dashboard Screen -->
  <g transform="translate(820, 750)">
    <!-- Phone Frame -->
    <rect x="0" y="0" width="280" height="550" rx="20" ry="20" fill="#ffffff" stroke="#ddd" stroke-width="2" />
    <!-- Status Bar -->
    <rect x="0" y="0" width="280" height="30" rx="20" ry="20" fill="#f0f0f0" />
    <!-- App Bar -->
    <rect x="0" y="30" width="280" height="60" fill="#3498db" />
    <text x="140" y="65" font-family="Arial, sans-serif" font-size="18" font-weight="bold" text-anchor="middle" fill="#ffffff">Dashboard</text>
    
    <!-- Time Period Selector -->
    <rect x="20" y="110" width="240" height="40" rx="5" ry="5" fill="#f5f5f5" stroke="#ddd" stroke-width="1" />
    <text x="140" y="135" font-family="Arial, sans-serif" font-size="14" text-anchor="middle" fill="#333">This Week</text>
    <text x="240" y="135" font-family="Arial, sans-serif" font-size="16" font-weight="bold" text-anchor="end" fill="#999">▼</text>
    
    <!-- Compliance Chart -->
    <rect x="20" y="170" width="240" height="150" rx="5" ry="5" fill="#ffffff" stroke="#ddd" stroke-width="1" />
    <text x="140" y="190" font-family="Arial, sans-serif" font-size="14" font-weight="bold" text-anchor="middle" fill="#333">Compliance Rate</text>
    
    <!-- Simple Chart -->
    <rect x="40" y="210" width="30" height="80" fill="#2ecc71" />
    <rect x="80" y="210" width="30" height="60" fill="#2ecc71" />
    <rect x="120" y="210" width="30" height="90" fill="#2ecc71" />
    <rect x="160" y="210" width="30" height="70" fill="#2ecc71" />
    <rect x="200" y="210" width="30" height="85" fill="#2ecc71" />
    
    <!-- Chart Labels -->
    <text x="55" y="305" font-family="Arial, sans-serif" font-size="12" text-anchor="middle" fill="#666">Mon</text>
    <text x="95" y="305" font-family="Arial, sans-serif" font-size="12" text-anchor="middle" fill="#666">Tue</text>
    <text x="135" y="305" font-family="Arial, sans-serif" font-size="12" text-anchor="middle" fill="#666">Wed</text>
    <text x="175" y="305" font-family="Arial, sans-serif" font-size="12" text-anchor="middle" fill="#666">Thu</text>
    <text x="215" y="305" font-family="Arial, sans-serif" font-size="12" text-anchor="middle" fill="#666">Fri</text>
    
    <!-- Stats Summary -->
    <rect x="20" y="340" width="115" height="90" rx="5" ry="5" fill="#ffffff" stroke="#ddd" stroke-width="1" />
    <text x="77" y="360" font-family="Arial, sans-serif" font-size="14" font-weight="bold" text-anchor="middle" fill="#333">Completed</text>
    <text x="77" y="400" font-family="Arial, sans-serif" font-size="24" font-weight="bold" text-anchor="middle" fill="#2ecc71">87%</text>
    
    <rect x="145" y="340" width="115" height="90" rx="5" ry="5" fill="#ffffff" stroke="#ddd" stroke-width="1" />
    <text x="202" y="360" font-family="Arial, sans-serif" font-size="14" font-weight="bold" text-anchor="middle" fill="#333">Pending</text>
    <text x="202" y="400" font-family="Arial, sans-serif" font-size="24" font-weight="bold" text-anchor="middle" fill="#f39c12">13%</text>
    
    <!-- Export Button -->
    <rect x="20" y="450" width="240" height="40" rx="20" ry="20" fill="#3498db" />
    <text x="140" y="475" font-family="Arial, sans-serif" font-size="16" font-weight="bold" text-anchor="middle" fill="#ffffff">Export Report</text>
    
    <!-- Screen Title -->
    <text x="140" y="580" font-family="Arial, sans-serif" font-size="16" font-weight="bold" text-anchor="middle" fill="#333">Dashboard Screen</text>
  </g>
  
  <!-- Offline Mode Indicator Screen -->
  <g transform="translate(100, 1400)">
    <!-- Phone Frame -->
    <rect x="0" y="0" width="280" height="550" rx="20" ry="20" fill="#ffffff" stroke="#ddd" stroke-width="2" />
    <!-- Status Bar -->
    <rect x="0" y="0" width="280" height="30" rx="20" ry="20" fill="#f0f0f0" />
    <!-- App Bar -->
    <rect x="0" y="30" width="280" height="60" fill="#3498db" />
    <text x="140" y="65" font-family="Arial, sans-serif" font-size="18" font-weight="bold" text-anchor="middle" fill="#ffffff">HOH Roster</text>
    
    <!-- Offline Banner -->
    <rect x="0" y="90" width="280" height="40" fill="#f39c12" />
    <text x="140" y="115" font-family="Arial, sans-serif" font-size="14" font-weight="bold" text-anchor="middle" fill="#ffffff">Offline Mode - Data will sync when connected</text>
    
    <!-- Search Bar -->
    <rect x="20" y="150" width="240" height="40" rx="20" ry="20" fill="#f5f5f5" stroke="#ddd" stroke-width="1" />
    <text x="50" y="175" font-family="Arial, sans-serif" font-size="14" fill="#999">Search by name or CDCR#</text>
    <circle cx="35" cy="170" r="8" fill="none" stroke="#999" stroke-width="2" />
    <line x1="40" y1="175" x2="45" y2="180" stroke="#999" stroke-width="2" />
    
    <!-- Roster List with Sync Status -->
    <!-- Item 1 -->
    <rect x="20" y="210" width="240" height="70" rx="5" ry="5" fill="#ffffff" stroke="#ddd" stroke-width="1" />
    <text x="35" y="235" font-family="Arial, sans-serif" font-size="16" font-weight="bold" fill="#333">John Doe</text>
    <text x="35" y="255" font-family="Arial, sans-serif" font-size="14" fill="#666">CDCR# AZ1234 • Unit 1-202</text>
    <circle cx="225" cy="245" r="8" fill="#f39c12" />
    <text x="240" y="250" font-family="Arial, sans-serif" font-size="18" font-weight="bold" text-anchor="middle" fill="#999">></text>
    
    <!-- Item 2 -->
    <rect x="20" y="290" width="240" height="70" rx="5" ry="5" fill="#ffffff" stroke="#ddd" stroke-width="1" />
    <text x="35" y="315" font-family="Arial, sans-serif" font-size="16" font-weight="bold" fill="#333">Richard Smith</text>
    <text x="35" y="335" font-family="Arial, sans-serif" font-size="14" fill="#666">CDCR# BK2345 • Unit 1-105</text>
    <circle cx="225" cy="325" r="8" fill="#f39c12" />
    <text x="240" y="330" font-family="Arial, sans-serif" font-size="18" font-weight="bold" text-anchor="middle" fill="#999">></text>
    
    <!-- Sync Status -->
    <rect x="20" y="380" width="240" height="60" rx="5" ry="5" fill="#f5f5f5" stroke="#ddd" stroke-width="1" />
    <text x="140" y="405" font-family="Arial, sans-serif" font-size="14" font-weight="bold" text-anchor="middle" fill="#333">Pending Sync</text>
    <text x="140" y="425" font-family="Arial, sans-serif" font-size="12" text-anchor="middle" fill="#666">5 records waiting to sync</text>
    
    <!-- Try Sync Button -->
    <rect x="20" y="460" width="240" height="40" rx="20" ry="20" fill="#3498db" />
    <text x="140" y="485" font-family="Arial, sans-serif" font-size="16" font-weight="bold" text-anchor="middle" fill="#ffffff">Try to Sync Now</text>
    
    <!-- Screen Title -->
    <text x="140" y="580" font-family="Arial, sans-serif" font-size="16" font-weight="bold" text-anchor="middle" fill="#333">Offline Mode Screen</text>
  </g>
  
  <!-- Multi-Select Screen -->
  <g transform="translate(460, 1400)">
    <!-- Phone Frame -->
    <rect x="0" y="0" width="280" height="550" rx="20" ry="20" fill="#ffffff" stroke="#ddd" stroke-width="2" />
    <!-- Status Bar -->
    <rect x="0" y="0" width="280" height="30" rx="20" ry="20" fill="#f0f0f0" />
    <!-- App Bar -->
    <rect x="0" y="30" width="280" height="60" fill="#3498db" />
    <text x="140" y="65" font-family="Arial, sans-serif" font-size="18" font-weight="bold" text-anchor="middle" fill="#ffffff">Multi-Select</text>
    
    <!-- Selection Info -->
    <rect x="20" y="110" width="240" height="40" rx="5" ry="5" fill="#f5f5f5" stroke="#ddd" stroke-width="1" />
    <text x="140" y="135" font-family="Arial, sans-serif" font-size="14" font-weight="bold" text-anchor="middle" fill="#333">3 Individuals Selected</text>
    
    <!-- Roster List with Checkboxes -->
    <!-- Item 1 -->
    <rect x="20" y="170" width="240" height="70" rx="5" ry="5" fill="#e3f2fd" stroke="#3498db" stroke-width="2" />
    <rect x="35" y="200" width="20" height="20" rx="3" ry="3" fill="#3498db" stroke="#3498db" stroke-width="1" />
    <text x="43" y="215" font-family="Arial, sans-serif" font-size="16" font-weight="bold" text-anchor="middle" fill="#ffffff">✓</text>
    <text x="70" y="195" font-family="Arial, sans-serif" font-size="16" font-weight="bold" fill="#333">John Doe</text>
    <text x="70" y="215" font-family="Arial, sans-serif" font-size="14" fill="#666">CDCR# AZ1234 • Unit 1-202</text>
    
    <!-- Item 2 -->
    <rect x="20" y="250" width="240" height="70" rx="5" ry="5" fill="#e3f2fd" stroke="#3498db" stroke-width="2" />
    <rect x="35" y="280" width="20" height="20" rx="3" ry="3" fill="#3498db" stroke="#3498db" stroke-width="1" />
    <text x="43" y="295" font-family="Arial, sans-serif" font-size="16" font-weight="bold" text-anchor="middle" fill="#ffffff">✓</text>
    <text x="70" y="275" font-family="Arial, sans-serif" font-size="16" font-weight="bold" fill="#333">Richard Smith</text>
    <text x="70" y="295" font-family="Arial, sans-serif" font-size="14" fill="#666">CDCR# BK2345 • Unit 1-105</text>
    
    <!-- Item 3 -->
    <rect x="20" y="330" width="240" height="70" rx="5" ry="5" fill="#e3f2fd" stroke="#3498db" stroke-width="2" />
    <rect x="35" y="360" width="20" height="20" rx="3" ry="3" fill="#3498db" stroke="#3498db" stroke-width="1" />
    <text x="43" y="375" font-family="Arial, sans-serif" font-size="16" font-weight="bold" text-anchor="middle" fill="#ffffff">✓</text>
    <text x="70" y="355" font-family="Arial, sans-serif" font-size="16" font-weight="bold" fill="#333">Michael Jones</text>
    <text x="70" y="375" font-family="Arial, sans-serif" font-size="14" fill="#666">CDCR# CL3456 • Unit 2-310</text>
    
    <!-- Item 4 -->
    <rect x="20" y="410" width="240" height="70" rx="5" ry="5" fill="#ffffff" stroke="#ddd" stroke-width="1" />
    <rect x="35" y="440" width="20" height="20" rx="3" ry="3" fill="#ffffff" stroke="#999" stroke-width="1" />
    <text x="70" y="435" font-family="Arial, sans-serif" font-size="16" font-weight="bold" fill="#333">James Wilson</text>
    <text x="70" y="455" font-family="Arial, sans-serif" font-size="14" fill="#666">CDCR# DM4567 • Unit 2-115</text>
    
    <!-- Continue Button -->
    <rect x="20" y="500" width="240" height="40" rx="20" ry="20" fill="#3498db" />
    <text x="140" y="525" font-family="Arial, sans-serif" font-size="16" font-weight="bold" text-anchor="middle" fill="#ffffff">Continue with Selected</text>
    
    <!-- Screen Title -->
    <text x="140" y="580" font-family="Arial, sans-serif" font-size="16" font-weight="bold" text-anchor="middle" fill="#333">Multi-Select Screen</text>
  </g>
  
  <!-- Executive Dashboard (Web View) -->
  <g transform="translate(820, 1400)">
    <!-- Laptop Frame -->
    <rect x="0" y="0" width="280" height="550" rx="5" ry="5" fill="#ffffff" stroke="#ddd" stroke-width="2" />
    <!-- Browser Bar -->
    <rect x="0" y="0" width="280" height="30" fill="#f0f0f0" stroke="#ddd" stroke-width="1" />
    <circle cx="15" cy="15" r="5" fill="#e74c3c" />
    <circle cx="35" cy="15" r="5" fill="#f39c12" />
    <circle cx="55" cy="15" r="5" fill="#2ecc71" />
    <rect x="75" y="8" width="150" height="15" rx="2" ry="2" fill="#ffffff" stroke="#ddd" stroke-width="1" />
    
    <!-- Header -->
    <rect x="0" y="30" width="280" height="60" fill="#3498db" />
    <text x="20" y="65" font-family="Arial, sans-serif" font-size="18" font-weight="bold" fill="#ffffff">ECOA Executive Dashboard</text>
    
    <!-- User Info -->
    <text x="260" y="65" font-family="Arial, sans-serif" font-size="14" font-weight="bold" text-anchor="end" fill="#ffffff">Admin</text>
    
    <!-- Date Range -->
    <rect x="20" y="110" width="240" height="30" rx="3" ry="3" fill="#f5f5f5" stroke="#ddd" stroke-width="1" />
    <text x="35" y="130" font-family="Arial, sans-serif" font-size="14" fill="#333">Date Range: Last 30 Days</text>
    <text x="240" y="130" font-family="Arial, sans-serif" font-size="14" font-weight="bold" text-anchor="end" fill="#333">▼</text>
    
    <!-- KPI Boxes -->
    <rect x="20" y="160" width="70" height="70" rx="3" ry="3" fill="#ffffff" stroke="#ddd" stroke-width="1" />
    <text x="55" y="190" font-family="Arial, sans-serif" font-size="20" font-weight="bold" text-anchor="middle" fill="#3498db">94%</text>
    <text x="55" y="210" font-family="Arial, sans-serif" font-size="10" text-anchor="middle" fill="#666">Compliance</text>
    
    <rect x="100" y="160" width="70" height="70" rx="3" ry="3" fill="#ffffff" stroke="#ddd" stroke-width="1" />
    <text x="135" y="190" font-family="Arial, sans-serif" font-size="20" font-weight="bold" text-anchor="middle" fill="#3498db">6.2K</text>
    <text x="135" y="210" font-family="Arial, sans-serif" font-size="10" text-anchor="middle" fill="#666">Prompts</text>
    
    <rect x="180" y="160" width="70" height="70" rx="3" ry="3" fill="#ffffff" stroke="#ddd" stroke-width="1" />
    <text x="215" y="190" font-family="Arial, sans-serif" font-size="20" font-weight="bold" text-anchor="middle" fill="#3498db">31</text>
    <text x="215" y="210" font-family="Arial, sans-serif" font-size="10" text-anchor="middle" fill="#666">Facilities</text>
    
    <!-- Compliance Chart -->
    <rect x="20" y="250" width="240" height="120" rx="3" ry="3" fill="#ffffff" stroke="#ddd" stroke-width="1" />
    <text x="140" y="270" font-family="Arial, sans-serif" font-size="14" font-weight="bold" text-anchor="middle" fill="#333">Statewide Compliance</text>
    
    <!-- Simple Line Chart -->
    <polyline points="35,330 60,320 85,325 110,315 135,300 160,310 185,305 210,295 235,290" fill="none" stroke="#3498db" stroke-width="2" />
    <line x1="35" y1="350" x2="235" y2="350" stroke="#ddd" stroke-width="1" />
    <line x1="35" y1="280" x2="35" y2="350" stroke="#ddd" stroke-width="1" />
    
    <!-- Facility Table -->
    <rect x="20" y="390" width="240" height="80" rx="3" ry="3" fill="#ffffff" stroke="#ddd" stroke-width="1" />
    <text x="140" y="410" font-family="Arial, sans-serif" font-size="14" font-weight="bold" text-anchor="middle" fill="#333">Top Performing Facilities</text>
    
    <line x1="20" y1="420" x2="260" y2="420" stroke="#ddd" stroke-width="1" />
    <text x="35" y="435" font-family="Arial, sans-serif" font-size="12" fill="#333">Facility A</text>
    <text x="250" y="435" font-family="Arial, sans-serif" font-size="12" text-anchor="end" fill="#333">98.7%</text>
    
    <line x1="20" y1="445" x2="260" y2="445" stroke="#ddd" stroke-width="1" />
    <text x="35" y="460" font-family="Arial, sans-serif" font-size="12" fill="#333">Facility B</text>
    <text x="250" y="460" font-family="Arial, sans-serif" font-size="12" text-anchor="end" fill="#333">97.2%</text>
    
    <!-- Export Controls -->
    <rect x="20" y="490" width="110" height="30" rx="3" ry="3" fill="#3498db" />
    <text x="75" y="510" font-family="Arial, sans-serif" font-size="12" font-weight="bold" text-anchor="middle" fill="#ffffff">Export PDF</text>
    
    <rect x="150" y="490" width="110" height="30" rx="3" ry="3" fill="#f5f5f5" stroke="#ddd" stroke-width="1" />
    <text x="205" y="510" font-family="Arial, sans-serif" font-size="12" text-anchor="middle" fill="#333">Print Report</text>
    
    <!-- Screen Title -->
    <text x="140" y="580" font-family="Arial, sans-serif" font-size="16" font-weight="bold" text-anchor="middle" fill="#333">Executive Dashboard</text>
  </g>
</svg>